<?xml version="1.0" encoding="iso-8859-1"?>
<!-- Generator: Adobe Illustrator 25.0.1, SVG Export Plug-In . SVG Version: 6.00 Build 0)  -->
<svg version="1.1" id="Layer_1" xmlns="http://www.w3.org/2000/svg" xmlns:xlink="http://www.w3.org/1999/xlink" x="0px" y="0px"
	 width="325px" height="155px" viewBox="0 0 325 155" enable-background="new 0 0 325 155" xml:space="preserve">
<g>
	<g>
		<defs>
			<path id="SVGID_1_" d="M288.174,64.93l7.761-3.637l22.82-10.697c0-33.957-25.1-47.3-47.93-48.579V1.906H153.424h-1.727H99.687
				v2.767C93.012,2.882,85.908,1.906,78.45,1.906C34.96,1.906,2.5,34.575,2.5,77.232c0,43.073,32.045,75.742,75.95,75.742
				c7.45,0,14.556-0.983,21.237-2.789v2.789h32.156v-20.946c9.027-8.748,15.742-19.803,19.401-32.36h0.454v53.307h59.565
				c11.113,0,20.809-2.083,28.984-5.891c7.926,3.825,17.182,5.891,27.317,5.891c34.125,0,54.936-19.977,54.936-44.946
				C322.5,79.637,305.802,70.03,288.174,64.93z M265.301,7.43v86.197c0,16.113-4.833,29.605-13.976,39.016
				c-3.25,3.345-7.04,6.131-11.288,8.364c-13.179-7.368-21.416-20.441-22.399-37.072l31.835-14.347l13.693-6.171l-14.521-3.835
				l-2.729-0.721c-11.902-4.091-24.006-11.378-24.006-34.09c0-10.006,4.144-19.263,11.668-26.066
				c7.235-6.542,16.985-10.394,28.414-11.276H265.301z M126.318,94.143v5.524v30.228c-6.091,5.47-13.214,9.833-21.107,12.873V12.083
				c26.216,10.035,43.864,34.733,43.864,65.148c0,5.872-0.667,11.525-1.903,16.911h-15.33H126.318z M157.222,7.556
				c25.013,1.51,40.962,18.007,40.962,42.909c0,24.462-16.658,41.893-40.962,43.539V7.556z M151.697,7.43v49.166
				c-6.058-22.562-21.964-40.561-43.659-49.166H151.697z M78.45,147.648c-19.728,0-37.721-7.157-50.666-20.152
				c-12.87-12.92-19.958-30.771-19.958-50.265c0-39.906,30.362-69.999,70.624-69.999c7.463,0,14.584,1.039,21.237,2.978v134.442
				C93.034,146.603,85.913,147.648,78.45,147.648z M126.318,147.45h-18.382c6.717-2.67,12.883-6.248,18.382-10.589V147.45z
				 M131.842,124.295V99.667h13.83C142.744,108.953,138.014,117.282,131.842,124.295z M211.263,147.45h-54.041V99.536
				c26.969-1.681,46.486-21.23,46.486-49.072c0-20.033-9.456-35.334-24.994-43.034h62.306
				c-15.627,7.489-24.436,21.735-24.436,37.342c0,24.494,12.817,34.083,27.788,39.191l2.914,0.769l-35.073,15.806
				c0,19.07,8.369,34.102,21.963,43.096C227.409,146.153,219.709,147.45,211.263,147.45z M304.363,135.82
				c-9.028,7.737-21.752,11.827-36.799,11.827c-7.886,0-15.084-1.322-21.418-3.775c16.007-10.103,24.679-27.96,24.679-50.246V7.35
				c10.679,0.633,20.43,4.012,27.759,9.69c9.086,7.04,14.04,17.193,14.754,30.213l-19.664,9.217l-7.761,3.637l-12.818,6.006
				l13.598,3.934c15.831,4.58,30.48,12.35,30.48,37.982C317.174,118.87,312.624,128.74,304.363,135.82z"/>
		</defs>
		<clipPath id="SVGID_2_">
			<use xlink:href="#SVGID_1_"  overflow="visible"/>
		</clipPath>
		<g clip-path="url(#SVGID_2_)">
			<g>
				<defs>
					<rect id="SVGID_3_" x="-2.5" y="-3.093" width="330" height="161.068"/>
				</defs>
				<clipPath id="SVGID_4_">
					<use xlink:href="#SVGID_3_"  overflow="visible"/>
				</clipPath>
				<g clip-path="url(#SVGID_4_)">
					<defs>
						<rect id="SVGID_5_" x="-2.5" y="-3.093" width="330" height="161.068"/>
					</defs>
					<clipPath id="SVGID_6_">
						<use xlink:href="#SVGID_5_"  overflow="visible"/>
					</clipPath>
					<g clip-path="url(#SVGID_6_)">
						
							<image overflow="visible" width="688" height="336" xlink:href="D30666B0C23D8EF8.jpg"  transform="matrix(0.48 0 0 0.48 -2.6049 -3.1778)">
						</image>
					</g>
				</g>
			</g>
		</g>
	</g>
</g>
</svg>
